<?xml version="1.0" encoding="utf-8"?>
<!-- Generator: Adobe Illustrator 25.0.1, SVG Export Plug-In . SVG Version: 6.00 Build 0)  -->
<svg version="1.1" id="Layer_1" xmlns="http://www.w3.org/2000/svg" xmlns:xlink="http://www.w3.org/1999/xlink" x="0px" y="0px"
	 viewBox="0 0 285.5 74.6" style="enable-background:new 0 0 285.5 74.6;" xml:space="preserve" width='250' height='66'>
<style type="text/css">
	.st0{fill:#68635F;}
</style>
<g>
	<path class="st0" d="M7.3,60.1h1.8v9.5c0,3.8-1.9,4.9-4.3,4.9c-0.7,0-1.5-0.1-2-0.3l0.3-1.5C3.5,72.9,4,73,4.7,73
		c1.6,0,2.6-0.7,2.6-3.5V60.1z"/>
	<polygon class="st0" points="20.3,67.7 14.8,67.7 14.8,72.8 21,72.8 21,74.3 13,74.3 13,60.1 20.6,60.1 20.6,61.6 14.8,61.6 
		14.8,66.1 20.3,66.1 	"/>
	<path class="st0" d="M27,60.1h1.8v9.5c0,3.8-1.9,4.9-4.3,4.9c-0.7,0-1.5-0.1-2-0.3l0.3-1.5c0.4,0.2,0.9,0.3,1.5,0.3
		c1.6,0,2.6-0.7,2.6-3.5V60.1z"/>
	<path class="st0" d="M34.6,60.1v8.4c0,3.2,1.4,4.5,3.3,4.5c2.1,0,3.5-1.4,3.5-4.5v-8.4h1.9v8.3c0,4.4-2.3,6.2-5.4,6.2
		c-2.9,0-5.1-1.7-5.1-6.1v-8.4H34.6z"/>
	<polygon class="st0" points="55.1,61.7 50.8,61.7 50.8,60.1 61.3,60.1 61.3,61.7 57,61.7 57,74.3 55.1,74.3 	"/>
	<polygon class="st0" points="71.1,67.7 65.6,67.7 65.6,72.8 71.7,72.8 71.7,74.3 63.7,74.3 63.7,60.1 71.4,60.1 71.4,61.6 
		65.6,61.6 65.6,66.1 71.1,66.1 	"/>
	<path class="st0" d="M81.9,68.4l-1.4-4.1c-0.3-0.9-0.5-1.8-0.7-2.6h0c-0.2,0.8-0.4,1.7-0.7,2.6l-1.4,4.1H81.9z M77.2,69.8l-1.5,4.5
		h-1.9l4.8-14.2h2.2l4.8,14.2h-2l-1.5-4.5H77.2z"/>
	<path class="st0" d="M104.7,73.7c-0.8,0.3-2.4,0.8-4.4,0.8c-2.2,0-3.9-0.5-5.3-1.9c-1.2-1.2-2-3.1-2-5.3c0-4.2,2.9-7.3,7.7-7.3
		c1.6,0,2.9,0.4,3.5,0.7l-0.4,1.5c-0.8-0.3-1.7-0.6-3.1-0.6c-3.5,0-5.7,2.2-5.7,5.7c0,3.6,2.2,5.7,5.5,5.7c1.2,0,2-0.2,2.4-0.4v-4.2
		H100v-1.5h4.7V73.7z"/>
	<path class="st0" d="M115.3,68.4l-1.4-4.1c-0.3-0.9-0.5-1.8-0.7-2.6h0c-0.2,0.8-0.4,1.7-0.7,2.6l-1.4,4.1H115.3z M110.6,69.8
		l-1.5,4.5h-1.9l4.8-14.2h2.2l4.9,14.2h-2l-1.5-4.5H110.6z"/>
	<path class="st0" d="M123.8,66.8h1.9c2,0,3.2-1.1,3.2-2.7c0-1.8-1.3-2.6-3.3-2.7c-0.9,0-1.5,0.1-1.8,0.2V66.8z M122,60.3
		c0.9-0.2,2.3-0.3,3.5-0.3c2,0,3.2,0.4,4.1,1.2c0.7,0.6,1.1,1.6,1.1,2.7c0,1.9-1.2,3.1-2.7,3.6v0.1c1.1,0.4,1.7,1.4,2.1,2.9
		c0.5,2,0.8,3.4,1.1,3.9h-1.9c-0.2-0.4-0.5-1.6-1-3.4c-0.4-2-1.2-2.7-2.8-2.8h-1.7v6.2H122V60.3z"/>
	<path class="st0" d="M136,72.9c0.5,0.1,1.1,0.1,1.9,0.1c3.9,0,6.1-2.2,6.1-6c0-3.4-1.9-5.5-5.8-5.5c-0.9,0-1.7,0.1-2.1,0.2V72.9z
		 M134.1,60.3c1.1-0.2,2.4-0.3,3.9-0.3c2.6,0,4.5,0.6,5.8,1.8c1.3,1.2,2,2.8,2,5.1c0,2.3-0.7,4.2-2,5.5c-1.3,1.3-3.5,2.1-6.3,2.1
		c-1.3,0-2.4-0.1-3.3-0.2V60.3z"/>
	<polygon class="st0" points="156.3,67.7 150.8,67.7 150.8,72.8 157,72.8 157,74.3 149,74.3 149,60.1 156.7,60.1 156.7,61.6 
		150.8,61.6 150.8,66.1 156.3,66.1 	"/>
	<path class="st0" d="M160.2,74.3V60.1h2l4.6,7.2c1.1,1.7,1.9,3.2,2.5,4.6l0,0c-0.2-1.9-0.2-3.6-0.2-5.8v-5.9h1.7v14.2H169l-4.5-7.2
		c-1-1.6-1.9-3.2-2.7-4.7l-0.1,0c0.1,1.8,0.2,3.5,0.2,5.9v6.1H160.2z"/>
	<path class="st0" d="M179.9,72.1c0.8,0.5,2,0.9,3.3,0.9c1.9,0,3-1,3-2.4c0-1.3-0.8-2.1-2.7-2.8c-2.3-0.8-3.8-2-3.8-4
		c0-2.2,1.8-3.9,4.6-3.9c1.5,0,2.5,0.3,3.1,0.7l-0.5,1.5c-0.5-0.3-1.4-0.7-2.7-0.7c-1.9,0-2.7,1.2-2.7,2.1c0,1.3,0.9,2,2.8,2.7
		c2.4,0.9,3.6,2.1,3.6,4.2c0,2.2-1.6,4.1-5,4.1c-1.4,0-2.9-0.4-3.6-0.9L179.9,72.1z"/>
	<rect x="191.3" y="60.1" class="st0" width="1.8" height="14.2"/>
	<path class="st0" d="M197.8,74.3V60.1h2l4.6,7.2c1.1,1.7,1.9,3.2,2.6,4.6l0,0c-0.2-1.9-0.2-3.6-0.2-5.8v-5.9h1.7v14.2h-1.9
		l-4.5-7.2c-1-1.6-1.9-3.2-2.7-4.7l-0.1,0c0.1,1.8,0.1,3.5,0.1,5.9v6.1H197.8z"/>
	<path class="st0" d="M222.2,73.9c-0.7,0.3-2,0.7-3.8,0.7c-4,0-7-2.6-7-7.2c0-4.5,3-7.5,7.4-7.5c1.8,0,2.9,0.4,3.4,0.6l-0.4,1.5
		c-0.7-0.3-1.7-0.6-2.9-0.6c-3.3,0-5.5,2.1-5.5,5.9c0,3.5,2,5.7,5.5,5.7c1.1,0,2.3-0.2,3-0.6L222.2,73.9z"/>
	<polygon class="st0" points="232.6,67.7 227,67.7 227,72.8 233.2,72.8 233.2,74.3 225.2,74.3 225.2,60.1 232.9,60.1 232.9,61.6 
		227,61.6 227,66.1 232.6,66.1 	"/>
	<polygon class="st0" points="245,62.3 245,62.3 242.6,63.6 242.2,62.2 245.2,60.6 246.8,60.6 246.8,74.3 245,74.3 	"/>
	<path class="st0" d="M255.6,61.8c-1.6,0-2.7,1.4-2.7,3.3c0,1.7,1,2.9,2.6,2.9c1.2,0,2.2-0.6,2.7-1.4c0.1-0.2,0.2-0.4,0.2-0.7
		C258.5,63.6,257.6,61.8,255.6,61.8L255.6,61.8z M252.3,73c0.4,0,0.9,0,1.5-0.1c1.1-0.1,2.1-0.6,2.9-1.3c0.9-0.8,1.6-2,1.8-3.6h-0.1
		c-0.8,0.9-1.9,1.5-3.2,1.5c-2.5,0-4-1.9-4-4.2c0-2.6,1.9-4.9,4.7-4.9c2.8,0,4.5,2.3,4.5,5.8c0,3-1,5.1-2.4,6.4
		c-1.1,1-2.5,1.7-4,1.8c-0.7,0.1-1.3,0.1-1.7,0.1V73z"/>
	<polygon class="st0" points="271,60.6 271,61.8 265,74.3 263.1,74.3 269.1,62.2 269.1,62.2 262.3,62.2 262.3,60.6 	"/>
	<path class="st0" d="M277.3,61.8c-1.6,0-2.7,1.4-2.7,3.3c0,1.7,1,2.9,2.6,2.9c1.2,0,2.2-0.6,2.7-1.4c0.1-0.2,0.2-0.4,0.2-0.7
		C280.2,63.6,279.3,61.8,277.3,61.8L277.3,61.8z M274,73c0.4,0,0.9,0,1.5-0.1c1.1-0.1,2.1-0.6,2.9-1.3c0.9-0.8,1.6-2,1.8-3.6h-0.1
		c-0.8,0.9-1.9,1.5-3.2,1.5c-2.5,0-4.1-1.9-4.1-4.2c0-2.6,1.9-4.9,4.7-4.9c2.8,0,4.5,2.3,4.5,5.8c0,3-1,5.1-2.4,6.4
		c-1,1-2.5,1.7-4,1.8c-0.7,0.1-1.3,0.1-1.7,0.1V73z"/>
	<path class="st0" d="M39.8,19.4v-0.1C39.8,8.6,31.5,0,20,0C8.4,0,0,8.7,0,19.4v0.1c0,10.6,8.3,19.3,19.9,19.3
		C31.4,38.7,39.8,30,39.8,19.4 M31.2,19.5c0,6.4-4.6,11.7-11.2,11.7c-6.6,0-11.3-5.3-11.3-11.8v-0.1c0-6.4,4.6-11.7,11.2-11.7
		c6.6,0,11.3,5.4,11.3,11.8V19.5z M78.2,27v-0.1c0-6.5-4.3-9.3-11.9-11.2c-6.5-1.6-8.1-2.4-8.1-4.9v-0.1c0-1.8,1.7-3.3,4.8-3.3
		c3.2,0,6.4,1.4,9.7,3.7l4.3-6.2c-3.8-3-8.5-4.8-13.9-4.8c-7.7,0-13.1,4.5-13.1,11.3v0.1c0,7.4,4.9,9.5,12.4,11.5
		c6.3,1.6,7.5,2.7,7.5,4.8v0.1c0,2.2-2,3.5-5.4,3.5c-4.3,0-7.8-1.8-11.2-4.5l-4.9,5.8c4.5,4,10.2,6,15.9,6
		C72.6,38.6,78.2,34.5,78.2,27 M121.8,21.8V0.6h-8.2v21.5c0,5.9-3,9-8.1,9c-5,0-8.1-3.2-8.1-9.3V0.6h-8.2V22
		c0,11,6.2,16.6,16.2,16.6S121.8,33.1,121.8,21.8 M161.4,38.1v-7.5h-18.7v-30h-8.2v37.5H161.4z M196.6,38.1v-7.5H178v-30h-8.2v37.5
		H196.6z M243.1,19.4v-0.1c0-10.6-8.3-19.3-19.9-19.3c-11.6,0-20,8.7-20,19.4v0.1c0,10.6,8.3,19.3,19.9,19.3
		C234.7,38.7,243.1,30,243.1,19.4 M234.5,19.5c0,6.4-4.6,11.7-11.2,11.7c-6.6,0-11.4-5.3-11.4-11.8v-0.1c0-6.4,4.6-11.7,11.2-11.7
		c6.6,0,11.4,5.4,11.4,11.8V19.5z M285.5,32.1l-5.2-5.3c-2.9,2.7-5.6,4.4-9.8,4.4c-6.4,0-10.9-5.3-10.9-11.8v-0.1
		c0-6.4,4.5-11.7,10.9-11.7c3.7,0,6.7,1.6,9.6,4.2l5.2-6c-3.5-3.4-7.7-5.8-14.8-5.8C259,0,251,8.7,251,19.4v0.1
		c0,10.8,8.2,19.3,19.2,19.3C277.4,38.7,281.7,36.2,285.5,32.1"/>
</g>
</svg>
